{
    "asset" : {
        "generator" : "Khronos glTF Blender I/O v1.1.45",
        "version" : "2.0"
    },
    "scene" : 0,
    "scenes" : [
        {
            "name" : "Scene",
            "nodes" : [
                1
            ]
        }
    ],
    "nodes" : [
        {
            "mesh" : 0,
            "name" : "Sphere",
            "rotation" : [
                0,
                0,
                0.7071067094802856,
                0.7071068286895752
            ],
            "scale" : [
                0.19999998807907104,
                0.19999998807907104,
                0.19999998807907104
            ],
            "translation" : [
                0.4266248047351837,
                0,
                0.868959903717041
            ]
        },
        {
            "children" : [
                0
            ],
            "mesh" : 1,
            "name" : "Ghost"
        }
    ],
    "animations" : [
        {
            "channels" : [
                {
                    "sampler" : 0,
                    "target" : {
                        "node" : 1,
                        "path" : "translation"
                    }
                }
            ],
            "name" : "GhostAction",
            "samplers" : [
                {
                    "input" : 12,
                    "interpolation" : "LINEAR",
                    "output" : 13
                }
            ]
        }
    ],
    "materials" : [
        {
            "doubleSided" : true,
            "emissiveFactor" : [
                0,
                0,
                0
            ],
            "name" : "White Eye",
            "pbrMetallicRoughness" : {
                "baseColorFactor" : [
                    0.800000011920929,
                    0.800000011920929,
                    0.800000011920929,
                    1
                ],
                "metallicFactor" : 0,
                "roughnessFactor" : 0.5
            }
        },
        {
            "doubleSided" : true,
            "emissiveFactor" : [
                0,
                0,
                0
            ],
            "name" : "Black Eye",
            "pbrMetallicRoughness" : {
                "baseColorFactor" : [
                    0,
                    0,
                    0,
                    1
                ],
                "metallicFactor" : 0,
                "roughnessFactor" : 0.5
            }
        },
        {
            "doubleSided" : true,
            "emissiveFactor" : [
                0,
                0,
                0
            ],
            "name" : "Main Color",
            "pbrMetallicRoughness" : {
                "baseColorFactor" : [
                    0.8000000715255737,
                    0.14527815580368042,
                    0.007748099509626627,
                    1
                ],
                "metallicFactor" : 0,
                "roughnessFactor" : 0.5
            }
        }
    ],
    "meshes" : [
        {
            "name" : "Sphere.001",
            "primitives" : [
                {
                    "attributes" : {
                        "POSITION" : 0,
                        "NORMAL" : 1,
                        "TEXCOORD_0" : 2
                    },
                    "indices" : 3,
                    "material" : 0
                },
                {
                    "attributes" : {
                        "POSITION" : 4,
                        "NORMAL" : 5,
                        "TEXCOORD_0" : 6
                    },
                    "indices" : 7,
                    "material" : 1
                }
            ]
        },
        {
            "name" : "Sphere",
            "primitives" : [
                {
                    "attributes" : {
                        "POSITION" : 8,
                        "NORMAL" : 9,
                        "TEXCOORD_0" : 10
                    },
                    "indices" : 11,
                    "material" : 2
                }
            ]
        }
    ],
    "accessors" : [
        {
            "bufferView" : 0,
            "componentType" : 5126,
            "count" : 1118,
            "max" : [
                1.000000238418579,
                5.26624870300293,
                1.000001311302185
            ],
            "min" : [
                -1.0000005960464478,
                -1,
                -1
            ],
            "type" : "VEC3"
        },
        {
            "bufferView" : 1,
            "componentType" : 5126,
            "count" : 1118,
            "type" : "VEC3"
        },
        {
            "bufferView" : 2,
            "componentType" : 5126,
            "count" : 1118,
            "type" : "VEC2"
        },
        {
            "bufferView" : 3,
            "componentType" : 5123,
            "count" : 5760,
            "type" : "SCALAR"
        },
        {
            "bufferView" : 4,
            "componentType" : 5126,
            "count" : 1118,
            "max" : [
                0.4200000464916229,
                4.736898422241211,
                1.2304420471191406
            ],
            "min" : [
                -0.42000073194503784,
                -0.4706500768661499,
                0.39044106006622314
            ],
            "type" : "VEC3"
        },
        {
            "bufferView" : 5,
            "componentType" : 5126,
            "count" : 1118,
            "type" : "VEC3"
        },
        {
            "bufferView" : 6,
            "componentType" : 5126,
            "count" : 1118,
            "type" : "VEC2"
        },
        {
            "bufferView" : 7,
            "componentType" : 5123,
            "count" : 5760,
            "type" : "SCALAR"
        },
        {
            "bufferView" : 8,
            "componentType" : 5126,
            "count" : 38597,
            "max" : [
                0.9935954213142395,
                0.9975767135620117,
                0.9935956001281738
            ],
            "min" : [
                -0.9935950040817261,
                -1.3122076988220215,
                -0.9935951232910156
            ],
            "type" : "VEC3"
        },
        {
            "bufferView" : 9,
            "componentType" : 5126,
            "count" : 38597,
            "type" : "VEC3"
        },
        {
            "bufferView" : 10,
            "componentType" : 5126,
            "count" : 38597,
            "type" : "VEC2"
        },
        {
            "bufferView" : 11,
            "componentType" : 5123,
            "count" : 216576,
            "type" : "SCALAR"
        },
        {
            "bufferView" : 12,
            "componentType" : 5126,
            "count" : 225,
            "max" : [
                9.375
            ],
            "min" : [
                0.041666666666666664
            ],
            "type" : "SCALAR"
        },
        {
            "bufferView" : 13,
            "componentType" : 5126,
            "count" : 225,
            "type" : "VEC3"
        }
    ],
    "bufferViews" : [
        {
            "buffer" : 0,
            "byteLength" : 13416,
            "byteOffset" : 0
        },
        {
            "buffer" : 0,
            "byteLength" : 13416,
            "byteOffset" : 13416
        },
        {
            "buffer" : 0,
            "byteLength" : 8944,
            "byteOffset" : 26832
        },
        {
            "buffer" : 0,
            "byteLength" : 11520,
            "byteOffset" : 35776
        },
        {
            "buffer" : 0,
            "byteLength" : 13416,
            "byteOffset" : 47296
        },
        {
            "buffer" : 0,
            "byteLength" : 13416,
            "byteOffset" : 60712
        },
        {
            "buffer" : 0,
            "byteLength" : 8944,
            "byteOffset" : 74128
        },
        {
            "buffer" : 0,
            "byteLength" : 11520,
            "byteOffset" : 83072
        },
        {
            "buffer" : 0,
            "byteLength" : 463164,
            "byteOffset" : 94592
        },
        {
            "buffer" : 0,
            "byteLength" : 463164,
            "byteOffset" : 557756
        },
        {
            "buffer" : 0,
            "byteLength" : 308776,
            "byteOffset" : 1020920
        },
        {
            "buffer" : 0,
            "byteLength" : 433152,
            "byteOffset" : 1329696
        },
        {
            "buffer" : 0,
            "byteLength" : 900,
            "byteOffset" : 1762848
        },
        {
            "buffer" : 0,
            "byteLength" : 2700,
            "byteOffset" : 1763748
        }
    ],
    "buffers" : [
        {
            "byteLength" : 1766448,
            "uri" : "data:application/octet-stream;base64,"
        }
    ]
}
