{
    "asset" : {
        "generator" : "Khronos glTF Blender I/O v1.1.45",
        "version" : "2.0"
    },
    "scene" : 0,
    "scenes" : [
        {
            "name" : "Scene",
            "nodes" : [
                3
            ]
        }
    ],
    "nodes" : [
        {
            "mesh" : 0,
            "name" : "Circle",
            "rotation" : [
                -0.1487370878458023,
                0.5016971230506897,
                0.3694366216659546,
                0.7679152488708496
            ],
            "scale" : [
                0.1615992784500122,
                0.16159924864768982,
                0.1615992784500122
            ],
            "translation" : [
                0.26206862926483154,
                0.46901366114616394,
                0.4986844062805176
            ]
        },
        {
            "children" : [
                0
            ],
            "mesh" : 1,
            "name" : "Sphere",
            "scale" : [
                1.0138039588928223,
                1.0138039588928223,
                1.0138039588928223
            ]
        },
        {
            "mesh" : 2,
            "name" : "Sphere.001",
            "rotation" : [
                0,
                0,
                1,
                1.9470718370939721e-07
            ]
        },
        {
            "children" : [
                1,
                2
            ],
            "name" : "Empty"
        }
    ],
    "animations" : [
        {
            "channels" : [
                {
                    "sampler" : 0,
                    "target" : {
                        "node" : 1,
                        "path" : "rotation"
                    }
                }
            ],
            "name" : "SphereAction",
            "samplers" : [
                {
                    "input" : 20,
                    "interpolation" : "LINEAR",
                    "output" : 21
                }
            ]
        },
        {
            "channels" : [
                {
                    "sampler" : 0,
                    "target" : {
                        "node" : 2,
                        "path" : "rotation"
                    }
                }
            ],
            "name" : "Sphere.001Action",
            "samplers" : [
                {
                    "input" : 20,
                    "interpolation" : "LINEAR",
                    "output" : 22
                }
            ]
        },
        {
            "channels" : [
                {
                    "sampler" : 0,
                    "target" : {
                        "node" : 0,
                        "path" : "rotation"
                    }
                }
            ],
            "name" : "CircleAction",
            "samplers" : [
                {
                    "input" : 23,
                    "interpolation" : "STEP",
                    "output" : 24
                }
            ]
        }
    ],
    "materials" : [
        {
            "doubleSided" : true,
            "emissiveFactor" : [
                0,
                0,
                0
            ],
            "name" : "BlackEyes",
            "pbrMetallicRoughness" : {
                "baseColorFactor" : [
                    0,
                    0,
                    0,
                    1
                ],
                "metallicFactor" : 0,
                "roughnessFactor" : 0.20000000298023224
            }
        },
        {
            "doubleSided" : true,
            "emissiveFactor" : [
                0,
                0,
                0
            ],
            "name" : "Yellow_PacMan",
            "pbrMetallicRoughness" : {
                "baseColorFactor" : [
                    0.7940171360969543,
                    0.5532967448234558,
                    0.02102833054959774,
                    1
                ],
                "metallicFactor" : 0,
                "roughnessFactor" : 0.4000000059604645
            }
        },
        {
            "doubleSided" : true,
            "emissiveFactor" : [
                0,
                0,
                0
            ],
            "name" : "mouth",
            "pbrMetallicRoughness" : {
                "baseColorFactor" : [
                    0,
                    0,
                    0,
                    1
                ],
                "metallicFactor" : 0,
                "roughnessFactor" : 0.5
            }
        },
        {
            "doubleSided" : true,
            "emissiveFactor" : [
                0,
                0,
                0
            ],
            "name" : "mouth2",
            "pbrMetallicRoughness" : {
                "baseColorFactor" : [
                    0,
                    0,
                    0,
                    1
                ],
                "metallicFactor" : 0,
                "roughnessFactor" : 0.5
            }
        }
    ],
    "meshes" : [
        {
            "name" : "Circle",
            "primitives" : [
                {
                    "attributes" : {
                        "POSITION" : 0,
                        "NORMAL" : 1,
                        "TEXCOORD_0" : 2
                    },
                    "indices" : 3,
                    "material" : 0
                }
            ]
        },
        {
            "name" : "Sphere",
            "primitives" : [
                {
                    "attributes" : {
                        "POSITION" : 4,
                        "NORMAL" : 5,
                        "TEXCOORD_0" : 6
                    },
                    "indices" : 7,
                    "material" : 1
                },
                {
                    "attributes" : {
                        "POSITION" : 8,
                        "NORMAL" : 9,
                        "TEXCOORD_0" : 10
                    },
                    "indices" : 11,
                    "material" : 2
                }
            ]
        },
        {
            "name" : "Sphere.001",
            "primitives" : [
                {
                    "attributes" : {
                        "POSITION" : 12,
                        "NORMAL" : 13,
                        "TEXCOORD_0" : 14
                    },
                    "indices" : 15,
                    "material" : 1
                },
                {
                    "attributes" : {
                        "POSITION" : 16,
                        "NORMAL" : 17,
                        "TEXCOORD_0" : 18
                    },
                    "indices" : 19,
                    "material" : 3
                }
            ]
        }
    ],
    "accessors" : [
        {
            "bufferView" : 0,
            "componentType" : 5126,
            "count" : 1796,
            "max" : [
                7.397379398345947,
                1.5940253734588623,
                2.0076732635498047
            ],
            "min" : [
                -1.584009051322937,
                -2.098881959915161,
                -3.4221718311309814
            ],
            "type" : "VEC3"
        },
        {
            "bufferView" : 1,
            "componentType" : 5126,
            "count" : 1796,
            "type" : "VEC3"
        },
        {
            "bufferView" : 2,
            "componentType" : 5126,
            "count" : 1796,
            "type" : "VEC2"
        },
        {
            "bufferView" : 3,
            "componentType" : 5123,
            "count" : 10752,
            "type" : "SCALAR"
        },
        {
            "bufferView" : 4,
            "componentType" : 5126,
            "count" : 361,
            "max" : [
                1.000000238418579,
                1,
                1.0000003576278687
            ],
            "min" : [
                -0.9999998211860657,
                7.549790126404332e-08,
                -1
            ],
            "type" : "VEC3"
        },
        {
            "bufferView" : 5,
            "componentType" : 5126,
            "count" : 361,
            "type" : "VEC3"
        },
        {
            "bufferView" : 6,
            "componentType" : 5126,
            "count" : 361,
            "type" : "VEC2"
        },
        {
            "bufferView" : 7,
            "componentType" : 5123,
            "count" : 1875,
            "type" : "SCALAR"
        },
        {
            "bufferView" : 8,
            "componentType" : 5126,
            "count" : 204,
            "max" : [
                1.000000238418579,
                7.549790836947068e-08,
                1.0000003576278687
            ],
            "min" : [
                -0.9999998211860657,
                7.549789415861596e-08,
                -1
            ],
            "type" : "VEC3"
        },
        {
            "bufferView" : 9,
            "componentType" : 5126,
            "count" : 204,
            "type" : "VEC3"
        },
        {
            "bufferView" : 10,
            "componentType" : 5126,
            "count" : 204,
            "type" : "VEC2"
        },
        {
            "bufferView" : 11,
            "componentType" : 5123,
            "count" : 768,
            "type" : "SCALAR"
        },
        {
            "bufferView" : 12,
            "componentType" : 5126,
            "count" : 393,
            "max" : [
                1.000000238418579,
                1,
                1.0000003576278687
            ],
            "min" : [
                -0.9999998211860657,
                7.549789415861596e-08,
                -1
            ],
            "type" : "VEC3"
        },
        {
            "bufferView" : 13,
            "componentType" : 5126,
            "count" : 393,
            "type" : "VEC3"
        },
        {
            "bufferView" : 14,
            "componentType" : 5126,
            "count" : 393,
            "type" : "VEC2"
        },
        {
            "bufferView" : 15,
            "componentType" : 5123,
            "count" : 1935,
            "type" : "SCALAR"
        },
        {
            "bufferView" : 16,
            "componentType" : 5126,
            "count" : 193,
            "max" : [
                1.000000238418579,
                7.549790836947068e-08,
                1.0000003576278687
            ],
            "min" : [
                -0.9999998211860657,
                7.549789415861596e-08,
                -1
            ],
            "type" : "VEC3"
        },
        {
            "bufferView" : 17,
            "componentType" : 5126,
            "count" : 193,
            "type" : "VEC3"
        },
        {
            "bufferView" : 18,
            "componentType" : 5126,
            "count" : 193,
            "type" : "VEC2"
        },
        {
            "bufferView" : 19,
            "componentType" : 5123,
            "count" : 708,
            "type" : "SCALAR"
        },
        {
            "bufferView" : 20,
            "componentType" : 5126,
            "count" : 170,
            "max" : [
                7.083333333333333
            ],
            "min" : [
                0.041666666666666664
            ],
            "type" : "SCALAR"
        },
        {
            "bufferView" : 21,
            "componentType" : 5126,
            "count" : 170,
            "type" : "VEC4"
        },
        {
            "bufferView" : 22,
            "componentType" : 5126,
            "count" : 170,
            "type" : "VEC4"
        },
        {
            "bufferView" : 23,
            "componentType" : 5126,
            "count" : 1,
            "max" : [
                0.041666666666666664
            ],
            "min" : [
                0.041666666666666664
            ],
            "type" : "SCALAR"
        },
        {
            "bufferView" : 24,
            "componentType" : 5126,
            "count" : 1,
            "type" : "VEC4"
        }
    ],
    "bufferViews" : [
        {
            "buffer" : 0,
            "byteLength" : 21552,
            "byteOffset" : 0
        },
        {
            "buffer" : 0,
            "byteLength" : 21552,
            "byteOffset" : 21552
        },
        {
            "buffer" : 0,
            "byteLength" : 14368,
            "byteOffset" : 43104
        },
        {
            "buffer" : 0,
            "byteLength" : 21504,
            "byteOffset" : 57472
        },
        {
            "buffer" : 0,
            "byteLength" : 4332,
            "byteOffset" : 78976
        },
        {
            "buffer" : 0,
            "byteLength" : 4332,
            "byteOffset" : 83308
        },
        {
            "buffer" : 0,
            "byteLength" : 2888,
            "byteOffset" : 87640
        },
        {
            "buffer" : 0,
            "byteLength" : 3750,
            "byteOffset" : 90528
        },
        {
            "buffer" : 0,
            "byteLength" : 2448,
            "byteOffset" : 94280
        },
        {
            "buffer" : 0,
            "byteLength" : 2448,
            "byteOffset" : 96728
        },
        {
            "buffer" : 0,
            "byteLength" : 1632,
            "byteOffset" : 99176
        },
        {
            "buffer" : 0,
            "byteLength" : 1536,
            "byteOffset" : 100808
        },
        {
            "buffer" : 0,
            "byteLength" : 4716,
            "byteOffset" : 102344
        },
        {
            "buffer" : 0,
            "byteLength" : 4716,
            "byteOffset" : 107060
        },
        {
            "buffer" : 0,
            "byteLength" : 3144,
            "byteOffset" : 111776
        },
        {
            "buffer" : 0,
            "byteLength" : 3870,
            "byteOffset" : 114920
        },
        {
            "buffer" : 0,
            "byteLength" : 2316,
            "byteOffset" : 118792
        },
        {
            "buffer" : 0,
            "byteLength" : 2316,
            "byteOffset" : 121108
        },
        {
            "buffer" : 0,
            "byteLength" : 1544,
            "byteOffset" : 123424
        },
        {
            "buffer" : 0,
            "byteLength" : 1416,
            "byteOffset" : 124968
        },
        {
            "buffer" : 0,
            "byteLength" : 680,
            "byteOffset" : 126384
        },
        {
            "buffer" : 0,
            "byteLength" : 2720,
            "byteOffset" : 127064
        },
        {
            "buffer" : 0,
            "byteLength" : 2720,
            "byteOffset" : 129784
        },
        {
            "buffer" : 0,
            "byteLength" : 4,
            "byteOffset" : 132504
        },
        {
            "buffer" : 0,
            "byteLength" : 16,
            "byteOffset" : 132508
        }
    ],
    "buffers" : [
        {
            "byteLength" : 132524,
            "uri" : "data:application/octet-stream;base64,"
        }
    ]
}
